  0
SECTION
  2
HEADER
  9
$ACADVER
  1
AC1009
  9
$INSBASE
 10
0.0
 20
0.0
 30
0.0
  9
$EXTMIN
 10
-35.572368617959398
 20
-21.641963405842031
 30
-0.0000000000000053
  9
$EXTMAX
 10
192.8461309471169
 20
50.266160597337937
 30
0.0000000000000099
  9
$LIMMIN
 10
0.0
 20
0.0
  9
$LIMMAX
 10
210.0
 20
297.0
  9
$ORTHOMODE
 70
     1
  9
$REGENMODE
 70
     1
  9
$FILLMODE
 70
     1
  9
$QTEXTMODE
 70
     0
  9
$MIRRTEXT
 70
     1
  9
$DRAGMODE
 70
     2
  9
$LTSCALE
 40
1.0
  9
$OSMODE
 70
    39
  9
$ATTMODE
 70
     1
  9
$TEXTSIZE
 40
3.5
  9
$TRACEWID
 40
1.0
  9
$TEXTSTYLE
  7
STANDARD
  9
$CLAYER
  8
0
  9
$CELTYPE
  6
BYLAYER
  9
$CECOLOR
 62
   256
  9
$DIMSCALE
 40
1.0
  9
$DIMASZ
 40
3.302
  9
$DIMEXO
 40
1.0
  9
$DIMDLI
 40
3.75
  9
$DIMRND
 40
0.0
  9
$DIMDLE
 40
0.0
  9
$DIMEXE
 40
1.0
  9
$DIMTP
 40
0.0
  9
$DIMTM
 40
0.0
  9
$DIMTXT
 40
3.5
  9
$DIMCEN
 40
2.5
  9
$DIMTSZ
 40
0.0
  9
$DIMTOL
 70
     0
  9
$DIMLIM
 70
     0
  9
$DIMTIH
 70
     1
  9
$DIMTOH
 70
     1
  9
$DIMSE1
 70
     0
  9
$DIMSE2
 70
     0
  9
$DIMTAD
 70
     1
  9
$DIMZIN
 70
     0
  9
$DIMBLK
  1

  9
$DIMASO
 70
     1
  9
$DIMSHO
 70
     1
  9
$DIMPOST
  1

  9
$DIMAPOST
  1

  9
$DIMALT
 70
     0
  9
$DIMALTD
 70
     3
  9
$DIMALTF
 40
0.0393700787
  9
$DIMLFAC
 40
1.0
  9
$DIMTOFL
 70
     1
  9
$DIMTVP
 40
0.0
  9
$DIMTIX
 70
     0
  9
$DIMSOXD
 70
     0
  9
$DIMSAH
 70
     0
  9
$DIMBLK1
  1

  9
$DIMBLK2
  1

  9
$DIMSTYLE
  2
ISO-25
  9
$DIMCLRD
 70
     0
  9
$DIMCLRE
 70
     0
  9
$DIMCLRT
 70
     0
  9
$DIMTFAC
 40
1.0
  9
$DIMGAP
 40
1.524
  9
$LUNITS
 70
     2
  9
$LUPREC
 70
     2
  9
$SKETCHINC
 40
1.0
  9
$FILLETRAD
 40
10.0
  9
$AUNITS
 70
     0
  9
$AUPREC
 70
     2
  9
$MENU
  1
.
  9
$ELEVATION
 40
0.0
  9
$PELEVATION
 40
0.0
  9
$THICKNESS
 40
0.0
  9
$LIMCHECK
 70
     0
  9
$BLIPMODE
 70
     0
  9
$CHAMFERA
 40
10.0
  9
$CHAMFERB
 40
10.0
  9
$SKPOLY
 70
     0
  9
$TDCREATE
 40
2456353.5584518518
  9
$TDUPDATE
 40
2456436.8876145608
  9
$TDINDWG
 40
0.2668642361
  9
$TDUSRTIMER
 40
0.2668641782
  9
$USRTIMER
 70
     1
  9
$ANGBASE
 50
0.0
  9
$ANGDIR
 70
     0
  9
$PDMODE
 70
     0
  9
$PDSIZE
 40
-1.0
  9
$PLINEWID
 40
0.0
  9
$COORDS
 70
     2
  9
$SPLFRAME
 70
     0
  9
$SPLINETYPE
 70
     6
  9
$SPLINESEGS
 70
     8
  9
$ATTDIA
 70
     0
  9
$ATTREQ
 70
     1
  9
$HANDLING
 70
     1
  9
$HANDSEED
  5
2C9B
  9
$SURFTAB1
 70
     6
  9
$SURFTAB2
 70
     6
  9
$SURFTYPE
 70
     6
  9
$SURFU
 70
     6
  9
$SURFV
 70
     6
  9
$UCSNAME
  2

  9
$UCSORG
 10
0.0
 20
0.0
 30
0.0
  9
$UCSXDIR
 10
1.0
 20
0.0
 30
0.0
  9
$UCSYDIR
 10
0.0
 20
1.0
 30
0.0
  9
$PUCSNAME
  2

  9
$PUCSORG
 10
0.0
 20
0.0
 30
0.0
  9
$PUCSXDIR
 10
1.0
 20
0.0
 30
0.0
  9
$PUCSYDIR
 10
0.0
 20
1.0
 30
0.0
  9
$USERI1
 70
     0
  9
$USERI2
 70
     0
  9
$USERI3
 70
     0
  9
$USERI4
 70
     0
  9
$USERI5
 70
     0
  9
$USERR1
 40
0.0
  9
$USERR2
 40
0.0
  9
$USERR3
 40
0.0
  9
$USERR4
 40
0.0
  9
$USERR5
 40
0.0
  9
$WORLDVIEW
 70
     1
  9
$SHADEDGE
 70
     3
  9
$SHADEDIF
 70
    70
  9
$TILEMODE
 70
     1
  9
$MAXACTVP
 70
    64
  9
$PLIMCHECK
 70
     0
  9
$PEXTMIN
 10
1.0000000000000000E+020
 20
1.0000000000000000E+020
 30
1.0000000000000000E+020
  9
$PEXTMAX
 10
-1.0000000000000000E+020
 20
-1.0000000000000000E+020
 30
-1.0000000000000000E+020
  9
$PLIMMIN
 10
0.0
 20
0.0
  9
$PLIMMAX
 10
420.0
 20
297.0
  9
$UNITMODE
 70
     0
  9
$VISRETAIN
 70
     1
  9
$PLINEGEN
 70
     0
  9
$PSLTSCALE
 70
     1
  0
ENDSEC
  0
SECTION
  2
TABLES
  0
TABLE
  2
VPORT
 70
     1
  0
VPORT
  2
*ACTIVE
 70
     0
 10
0.0
 20
0.0
 11
1.0
 21
1.0
 12
78.636881164578753
 22
14.312098595747949
 13
0.0
 23
0.0
 14
10.0
 24
10.0
 15
10.0
 25
10.0
 16
0.0
 26
0.0
 36
1.0
 17
0.0
 27
0.0
 37
0.0
 40
115.5675789482172
 41
1.9838909541511771
 42
50.0
 43
0.0
 44
0.0
 50
0.0
 51
0.0
 71
     0
 72
  2000
 73
     1
 74
     3
 75
     0
 76
     0
 77
     0
 78
     0
  0
ENDTAB
  0
TABLE
  2
LTYPE
 70
     7
  0
LTYPE
  2
CONTINUOUS
 70
     0
  3
Solid line
 72
    65
 73
     0
 40
0.0
  0
LTYPE
  2
HIDDEN
 70
     0
  3
Hidden __ __ __ __ __ __ __ __ __ __ __ __ __ __
 72
    65
 73
     2
 40
1.905
 49
1.27
 49
-0.635
  0
LTYPE
  2
PHANTOM
 70
     0
  3
Phantom ______  __  __  ______  __  __  ______
 72
    65
 73
     6
 40
12.699999999999999
 49
6.3499999999999979
 49
-1.27
 49
1.27
 49
-1.27
 49
1.27
 49
-1.27
  0
LTYPE
  2
CENTER
 70
     0
  3
Center ____ _ ____ _ ____ _ ____ _ ____ _ ____
 72
    65
 73
     4
 40
10.16
 49
6.3499999999999979
 49
-1.27
 49
1.27
 49
-1.27
  0
LTYPE
  2
CENTERX2
 70
     0
  3
Center (2x) ________  __  ________  __  _____
 72
    65
 73
     4
 40
20.32
 49
12.699999999999999
 49
-2.54
 49
2.54
 49
-2.54
  0
LTYPE
  2
DOT2
 70
     0
  3
Dot (.5x) ........................................
 72
    65
 73
     2
 40
0.635
 49
0.0
 49
-0.635
  0
ENDTAB
  0
TABLE
  2
LAYER
 70
     2
  0
LAYER
  2
0
 70
     0
 62
     7
  6
CONTINUOUS
  0
LAYER
  2
FORMAT
 70
     0
 62
     7
  6
CONTINUOUS
  0
ENDTAB
  0
TABLE
  2
STYLE
 70
     4
  0
STYLE
  2
STANDARD
 70
     0
 40
0.0
 41
1.0
 50
0.0
 71
     0
 42
3.5
  3
txt
  4

  0
STYLE
  2
ANNOTATIVE
 70
     0
 40
0.0
 41
1.0
 50
0.0
 71
     0
 42
0.2
  3
txt
  4

  0
STYLE
  2
SLDTEXTSTYLE0
 70
     0
 40
0.0
 41
0.75
 50
0.0
 71
     0
 42
0.2
  3
TXT
  4

  0
STYLE
  2
SLDTEXTSTYLE1
 70
     0
 40
0.0
 41
0.6818181818000002
 50
0.0
 71
     0
 42
0.2
  3
TXT
  4

  0
ENDTAB
  0
TABLE
  2
VIEW
 70
     0
  0
ENDTAB
  0
TABLE
  2
UCS
 70
     0
  0
ENDTAB
  0
TABLE
  2
APPID
 70
     4
  0
APPID
  2
ACAD
 70
     0
  0
APPID
  2
ACADANNOTATIVE
 70
     0
  0
APPID
  2
ACAD_MLEADERVER
 70
     0
  0
APPID
  2
ACAD_EXEMPT_FROM_CAD_STANDARDS
 70
     0
  0
ENDTAB
  0
TABLE
  2
DIMSTYLE
 70
     3
  0
DIMSTYLE
  2
STANDARD
 70
     0
  3

  4

  5

  6

  7

 40
1.0
 41
0.18
 42
0.0625
 43
0.38
 44
0.18
 45
0.0
 46
0.0
 47
0.0
 48
0.0
140
0.18
141
0.09
142
0.0
143
25.399999999999999
144
1.0
145
0.0
146
1.0
147
0.09
 71
     0
 72
     0
 73
     1
 74
     1
 75
     0
 76
     0
 77
     0
 78
     0
170
     0
171
     2
172
     0
173
     0
174
     0
175
     0
176
     0
177
     0
178
     0
  0
DIMSTYLE
  2
ANNOTATIVE
 70
     0
  3

  4

  5

  6

  7

 40
1.0
 41
0.18
 42
0.0625
 43
0.38
 44
0.18
 45
0.0
 46
0.0
 47
0.0
 48
0.0
140
0.18
141
0.09
142
0.0
143
25.399999999999999
144
1.0
145
0.0
146
1.0
147
0.09
 71
     0
 72
     0
 73
     1
 74
     1
 75
     0
 76
     0
 77
     0
 78
     0
170
     0
171
     2
172
     0
173
     0
174
     0
175
     0
176
     0
177
     0
178
     0
  0
DIMSTYLE
  2
ISO-25
 70
     0
  3

  4

  5

  6

  7

 40
1.0
 41
2.5
 42
0.625
 43
3.75
 44
1.25
 45
0.0
 46
0.0
 47
0.0
 48
0.0
140
2.5
141
2.5
142
0.0
143
0.0393700787
144
1.0
145
0.0
146
1.0
147
0.625
 71
     0
 72
     0
 73
     0
 74
     0
 75
     0
 76
     0
 77
     1
 78
     8
170
     0
171
     3
172
     1
173
     0
174
     0
175
     0
176
     0
177
     0
178
     0
  0
ENDTAB
  0
ENDSEC
  0
SECTION
  2
BLOCKS
  0
BLOCK
  8
0
  2
$MODEL_SPACE
 70
     0
 10
0.0
 20
0.0
 30
0.0
  3
$MODEL_SPACE
  1

  0
ENDBLK
  5
2C06
  8
0
  0
BLOCK
 67
     1
  8
0
  2
$PAPER_SPACE
 70
     0
 10
0.0
 20
0.0
 30
0.0
  3
$PAPER_SPACE
  1

  0
ENDBLK
  5
2C02
 67
     1
  8
0
  0
BLOCK
  8
0
  2
SW_NOTE_0
 70
     0
 10
0.0
 20
0.0
 30
0.0
  3
SW_NOTE_0
  1

  0
INSERT
  5
7A
  8
0
  2
*U3
 10
0.0
 20
0.0
 30
0.0
  0
INSERT
  5
7B
  8
0
  2
*U4
 10
0.0
 20
0.0
 30
0.0
  0
INSERT
  5
7C
  8
0
  2
*U5
 10
0.0
 20
0.0
 30
0.0
  0
ENDBLK
  5
79
  8
0
  0
BLOCK
  8
0
  2
*U3
 70
     1
 10
0.0
 20
0.0
 30
0.0
  3
*U3
  1

  0
TEXT
  5
2B31
  8
0
 62
     0
 10
0.0
 20
0.4336016097
 30
0.0
 40
1.5
  1
REBARBAR Y
 41
0.75
  7
SLDTEXTSTYLE0
  0
ENDBLK
  5
2B33
  8
0
  0
BLOCK
  8
0
  2
*U4
 70
     1
 10
0.0
 20
0.0
 30
0.0
  3
*U4
  1

  0
TEXT
  5
2B35
  8
0
 62
     0
 10
0.0
 20
-2.0663983345000001
 30
0.0
 40
1.5
  1
ROMPER ARISTAS
 41
0.75
  7
SLDTEXTSTYLE0
  0
ENDBLK
  5
2B37
  8
0
  0
BLOCK
  8
0
  2
*U5
 70
     1
 10
0.0
 20
0.0
 30
0.0
  3
*U5
  1

  0
TEXT
  5
2B39
  8
0
 62
     0
 10
0.0
 20
-4.5663982786000004
 30
0.0
 40
1.5
  1
VIVAS
 41
0.75
  7
SLDTEXTSTYLE0
  0
ENDBLK
  5
2B3B
  8
0
  0
BLOCK
  8
0
  2
SW_NOTE_1
 70
     0
 10
0.0
 20
0.0
 30
0.0
  3
SW_NOTE_1
  1

  0
INSERT
  5
82
  8
0
  2
*U7
 10
0.0
 20
0.0
 30
0.0
  0
INSERT
  5
83
  8
0
  2
*U8
 10
0.0
 20
0.0
 30
0.0
  0
INSERT
  5
84
  8
0
  2
*U9
 10
0.0
 20
0.0
 30
0.0
  0
INSERT
  5
85
  8
0
  2
*U10
 10
0.0
 20
0.0
 30
0.0
  0
INSERT
  5
86
  8
0
  2
*U11
 10
0.0
 20
0.0
 30
0.0
  0
INSERT
  5
87
  8
0
  2
*U12
 10
0.0
 20
0.0
 30
0.0
  0
ENDBLK
  5
81
  8
0
  0
BLOCK
  8
0
  2
*U7
 70
     1
 10
0.0
 20
0.0
 30
0.0
  3
*U7
  1

  0
TEXT
  5
2B3D
  8
0
 62
     0
 10
0.0
 20
0.4336016097
 30
0.0
 40
1.5
  1
SI NO SE INDICA LO CONTRARIO:
 41
0.75
  7
SLDTEXTSTYLE0
  0
ENDBLK
  5
2B3F
  8
0
  0
BLOCK
  8
0
  2
*U8
 70
     1
 10
0.0
 20
0.0
 30
0.0
  3
*U8
  1

  0
TEXT
  5
2B41
  8
0
 62
     0
 10
0.0
 20
-2.0663983345000001
 30
0.0
 40
1.5
  1
LAS COTAS SE EXPRESAN EN MM
 41
0.75
  7
SLDTEXTSTYLE0
  0
ENDBLK
  5
2B43
  8
0
  0
BLOCK
  8
0
  2
*U9
 70
     1
 10
0.0
 20
0.0
 30
0.0
  3
*U9
  1

  0
TEXT
  5
2B45
  8
0
 62
     0
 10
0.0
 20
-4.5663982786000004
 30
0.0
 40
1.5
  1
ACABADO SUPERFICIAL:
 41
0.75
  7
SLDTEXTSTYLE0
  0
ENDBLK
  5
2B47
  8
0
  0
BLOCK
  8
0
  2
*U10
 70
     1
 10
0.0
 20
0.0
 30
0.0
  3
*U10
  1

  0
TEXT
  5
2B49
  8
0
 62
     0
 10
0.0
 20
-7.0663982227000002
 30
0.0
 40
1.5
  1
TOLERANCIAS:
 41
0.75
  7
SLDTEXTSTYLE0
  0
ENDBLK
  5
2B4B
  8
0
  0
BLOCK
  8
0
  2
*U11
 70
     1
 10
0.0
 20
0.0
 30
0.0
  3
*U11
  1

  0
TEXT
  5
2B4D
  8
0
 62
     0
 10
1.6875
 20
-9.5663981668000009
 30
0.0
 40
1.5
  1
LINEAL:
 41
0.75
  7
SLDTEXTSTYLE0
  0
ENDBLK
  5
2B4F
  8
0
  0
BLOCK
  8
0
  2
*U12
 70
     1
 10
0.0
 20
0.0
 30
0.0
  3
*U12
  1

  0
TEXT
  5
2B51
  8
0
 62
     0
 10
1.6875
 20
-12.0663981109
 30
0.0
 40
1.5
  1
ANGULAR:
 41
0.75
  7
SLDTEXTSTYLE0
  0
ENDBLK
  5
2B53
  8
0
  0
BLOCK
  8
0
  2
SW_CENTERMARKSYMBOL_0
 70
     0
 10
0.0
 20
0.0
 30
0.0
  3
SW_CENTERMARKSYMBOL_0
  1

  0
LINE
  5
3B1
  8
0
  6
CONTINUOUS
 62
     0
 10
0.0
 20
0.0
 30
0.0
 11
0.0
 21
2.5000000000000022
 31
0.0
  0
LINE
  5
3B2
  8
0
  6
CONTINUOUS
 62
     0
 10
0.0
 20
0.0
 30
0.0
 11
-2.5000000000000022
 21
0.0
 31
0.0
  0
LINE
  5
3B3
  8
0
  6
CONTINUOUS
 62
     0
 10
0.0
 20
0.0
 30
0.0
 11
0.0
 21
-2.5000000000000022
 31
0.0
  0
LINE
  5
3B4
  8
0
  6
CONTINUOUS
 62
     0
 10
0.0
 20
0.0
 30
0.0
 11
2.499999999999988
 21
0.0
 31
0.0
  0
LINE
  5
3B5
  8
0
  6
CONTINUOUS
 62
     0
 10
0.0
 20
2.5000000000000022
 30
0.0
 11
0.0
 21
4.2779987006089364
 31
0.0
  0
LINE
  5
3B6
  8
0
  6
CONTINUOUS
 62
     0
 10
-2.5000000000000022
 20
0.0
 30
0.0
 11
-4.277998700608963
 21
0.0
 31
0.0
  0
LINE
  5
3B7
  8
0
  6
CONTINUOUS
 62
     0
 10
0.0
 20
-2.5000000000000022
 30
0.0
 11
0.0
 21
-4.277998700608963
 31
0.0
  0
LINE
  5
3B8
  8
0
  6
CONTINUOUS
 62
     0
 10
2.499999999999988
 20
0.0
 30
0.0
 11
4.2779987006089488
 21
0.0
 31
0.0
  0
ENDBLK
  5
3B9
  8
0
  0
BLOCK
  8
0
  2
SW_CENTERMARKSYMBOL_1
 70
     0
 10
0.0
 20
0.0
 30
0.0
  3
SW_CENTERMARKSYMBOL_1
  1

  0
LINE
  5
3BC
  8
0
  6
CONTINUOUS
 62
     0
 10
0.0
 20
0.0
 30
0.0
 11
0.0
 21
2.5000000000000022
 31
0.0
  0
LINE
  5
3BD
  8
0
  6
CONTINUOUS
 62
     0
 10
0.0
 20
0.0
 30
0.0
 11
-2.499999999999988
 21
0.0
 31
0.0
  0
LINE
  5
3BE
  8
0
  6
CONTINUOUS
 62
     0
 10
0.0
 20
0.0
 30
0.0
 11
0.0
 21
-2.5000000000000022
 31
0.0
  0
LINE
  5
3BF
  8
0
  6
CONTINUOUS
 62
     0
 10
0.0
 20
0.0
 30
0.0
 11
2.5000000000000022
 21
0.0
 31
0.0
  0
LINE
  5
3C0
  8
0
  6
CONTINUOUS
 62
     0
 10
0.0
 20
2.5000000000000022
 30
0.0
 11
0.0
 21
4.277998700608963
 31
0.0
  0
LINE
  5
3C1
  8
0
  6
CONTINUOUS
 62
     0
 10
-2.499999999999988
 20
0.0
 30
0.0
 11
-4.2779987006089488
 21
0.0
 31
0.0
  0
LINE
  5
3C2
  8
0
  6
CONTINUOUS
 62
     0
 10
0.0
 20
-2.5000000000000022
 30
0.0
 11
0.0
 21
-4.277998700608963
 31
0.0
  0
LINE
  5
3C3
  8
0
  6
CONTINUOUS
 62
     0
 10
2.5000000000000022
 20
0.0
 30
0.0
 11
4.277998700608963
 21
0.0
 31
0.0
  0
ENDBLK
  5
3C4
  8
0
  0
BLOCK
  8
0
  2
SW_CENTERMARKSYMBOL_2
 70
     0
 10
0.0
 20
0.0
 30
0.0
  3
SW_CENTERMARKSYMBOL_2
  1

  0
LINE
  5
3C7
  8
0
  6
CONTINUOUS
 62
     0
 10
0.0
 20
0.0
 30
0.0
 11
0.0
 21
2.5000000000000022
 31
0.0
  0
LINE
  5
3C8
  8
0
  6
CONTINUOUS
 62
     0
 10
0.0
 20
0.0
 30
0.0
 11
-2.499999999999988
 21
0.0
 31
0.0
  0
LINE
  5
3C9
  8
0
  6
CONTINUOUS
 62
     0
 10
0.0
 20
0.0
 30
0.0
 11
0.0
 21
-2.5000000000000022
 31
0.0
  0
LINE
  5
3CA
  8
0
  6
CONTINUOUS
 62
     0
 10
0.0
 20
0.0
 30
0.0
 11
2.5000000000000022
 21
0.0
 31
0.0
  0
LINE
  5
3CB
  8
0
  6
CONTINUOUS
 62
     0
 10
0.0
 20
2.5000000000000022
 30
0.0
 11
0.0
 21
4.2779987006089364
 31
0.0
  0
LINE
  5
3CC
  8
0
  6
CONTINUOUS
 62
     0
 10
-2.499999999999988
 20
0.0
 30
0.0
 11
-4.2779987006089488
 21
0.0
 31
0.0
  0
LINE
  5
3CD
  8
0
  6
CONTINUOUS
 62
     0
 10
0.0
 20
-2.5000000000000022
 30
0.0
 11
0.0
 21
-4.277998700608963
 31
0.0
  0
LINE
  5
3CE
  8
0
  6
CONTINUOUS
 62
     0
 10
2.5000000000000022
 20
0.0
 30
0.0
 11
4.277998700608963
 21
0.0
 31
0.0
  0
ENDBLK
  5
3CF
  8
0
  0
BLOCK
  8
0
  2
SW_CENTERMARKSYMBOL_3
 70
     0
 10
0.0
 20
0.0
 30
0.0
  3
SW_CENTERMARKSYMBOL_3
  1

  0
LINE
  5
3D2
  8
0
  6
CONTINUOUS
 62
     0
 10
0.0
 20
0.0
 30
0.0
 11
0.0
 21
2.5000000000000022
 31
0.0
  0
LINE
  5
3D3
  8
0
  6
CONTINUOUS
 62
     0
 10
0.0
 20
0.0
 30
0.0
 11
-2.499999999999988
 21
0.0
 31
0.0
  0
LINE
  5
3D4
  8
0
  6
CONTINUOUS
 62
     0
 10
0.0
 20
0.0
 30
0.0
 11
0.0
 21
-2.5000000000000022
 31
0.0
  0
LINE
  5
3D5
  8
0
  6
CONTINUOUS
 62
     0
 10
0.0
 20
0.0
 30
0.0
 11
2.5000000000000022
 21
0.0
 31
0.0
  0
LINE
  5
3D6
  8
0
  6
CONTINUOUS
 62
     0
 10
0.0
 20
2.5000000000000022
 30
0.0
 11
0.0
 21
4.277998700608963
 31
0.0
  0
LINE
  5
3D7
  8
0
  6
CONTINUOUS
 62
     0
 10
-2.499999999999988
 20
0.0
 30
0.0
 11
-4.2779987006089488
 21
0.0
 31
0.0
  0
LINE
  5
3D8
  8
0
  6
CONTINUOUS
 62
     0
 10
0.0
 20
-2.5000000000000022
 30
0.0
 11
0.0
 21
-4.277998700608963
 31
0.0
  0
LINE
  5
3D9
  8
0
  6
CONTINUOUS
 62
     0
 10
2.5000000000000022
 20
0.0
 30
0.0
 11
4.277998700608963
 21
0.0
 31
0.0
  0
ENDBLK
  5
3DA
  8
0
  0
BLOCK
  8
0
  2
*U17
 70
     1
 10
0.0
 20
0.0
 30
0.0
  3
*U17
  1

  0
TEXT
  5
2B89
  8
0
 10
-26.039468325329828
 20
38.058574132911382
 30
0.0
 40
3.5
  1
Espesor 
  0
TEXT
  5
2B8A
  8
0
 10
1.9605316746701631
 20
38.058574132911382
 30
0.0
 40
5.0000999999999989
  1
5 
  0
TEXT
  5
2B8B
  8
0
 10
11.960731674670161
 20
38.058574132911382
 30
0.0
 40
3.5
  1
mm
  0
ENDBLK
  5
2B8D
  8
0
  0
BLOCK
  8
0
  2
*U18
 70
     1
 10
0.0
 20
0.0
 30
0.0
  3
*U18
  1

  0
TEXT
  5
2B8F
  8
0
 10
68.103926452934331
 20
38.058574132911382
 30
0.0
 40
3.5
  1
Espesor 
  0
TEXT
  5
2B90
  8
0
 10
96.103926452934303
 20
38.058574132911382
 30
0.0
 40
5.0000999999999989
  1
5 
  0
TEXT
  5
2B91
  8
0
 10
106.1041264529343
 20
38.058574132911382
 30
0.0
 40
3.5
  1
mm
  0
ENDBLK
  5
2B93
  8
0
  0
BLOCK
  8
0
  2
*U19
 70
     1
 10
0.0
 20
0.0
 30
0.0
  3
*U19
  1

  0
TEXT
  5
2B95
  8
0
 10
149.0084061897611
 20
38.058574132911382
 30
0.0
 40
3.5
  1
Espesor 
  0
TEXT
  5
2B96
  8
0
 10
177.0084061897611
 20
38.058574132911382
 30
0.0
 40
5.0000999999999989
  1
5 
  0
TEXT
  5
2B97
  8
0
 10
187.00860618976111
 20
38.058574132911382
 30
0.0
 40
3.5
  1
mm
  0
ENDBLK
  5
2B99
  8
0
  0
BLOCK
  8
0
  2
*U20
 70
     1
 10
0.0
 20
0.0
 30
0.0
  3
*U20
  1

  0
TEXT
  5
2C90
  8
0
 10
-20.118508018297462
 20
34.504905020548676
 30
0.0
 40
3.5
  1
FN2.0 001_15
  0
ENDBLK
  5
2C92
  8
0
  0
BLOCK
  8
0
  2
*U21
 70
     1
 10
0.0
 20
0.0
 30
0.0
  3
*U21
  1

  0
TEXT
  5
2C94
  8
0
 10
70.347409877475684
 20
34.504905020548676
 30
0.0
 40
3.5
  1
FN2.0 001_05
  0
ENDBLK
  5
2C96
  8
0
  0
BLOCK
  8
0
  2
*U22
 70
     1
 10
0.0
 20
0.0
 30
0.0
  3
*U22
  1

  0
TEXT
  5
2C98
  8
0
 10
149.78089996597029
 20
34.504905020548676
 30
0.0
 40
3.5
  1
FN2.0 001_14
  0
ENDBLK
  5
2C9A
  8
0
  0
ENDSEC
  0
SECTION
  2
ENTITIES
  0
CIRCLE
  5
363
  8
0
  6
CONTINUOUS
 62
     7
 10
169.87686073646981
 20
-16.49999999968
 30
0.0
 40
1.7500000000000271
  0
CIRCLE
  5
364
  8
0
  6
CONTINUOUS
 62
     7
 10
184.1662798995097
 20
8.2499999998399876
 30
0.0
 40
1.75
  0
ARC
  5
365
  8
0
  6
CONTINUOUS
 62
     7
 10
159.0458339766632
 20
15.41462406166781
 30
0.0
 40
0.9106322919964927
 50
336.44508831828603
 51
125.0936488636076
  0
ARC
  5
366
  8
0
  6
CONTINUOUS
 62
     7
 10
161.6268607365393
 20
14.289419161127681
 30
0.0
 40
1.9049999999402321
 50
156.4450883182852
 51
83.554911685864298
  0
ARC
  5
367
  8
0
  6
CONTINUOUS
 62
     7
 10
161.94291808794441
 20
17.087256353320878
 30
0.0
 40
0.9106322919964796
 50
114.9063511405417
 51
263.55491168586428
  0
ARC
  5
368
  8
0
  6
CONTINUOUS
 62
     7
 10
169.87686073646981
 20
0.0
 30
0.0
 40
19.749999999915861
 50
95.093648859984214
 51
114.9063511405417
  0
ARC
  5
369
  8
0
  6
CONTINUOUS
 62
     7
 10
168.2042284454287
 20
18.764969407200251
 30
0.0
 40
0.91063229199651
 50
306.44508830338322
 51
95.093648859982565
  0
ARC
  5
36A
  8
0
  6
CONTINUOUS
 62
     7
 10
169.87686073646981
 20
16.499999998496602
 30
0.0
 40
1.9049999999402061
 50
126.4450883033811
 51
53.554911696616927
  0
ARC
  5
36B
  8
0
  6
CONTINUOUS
 62
     7
 10
171.54949302751081
 20
18.764969407200251
 30
0.0
 40
0.9106322919964819
 50
84.906351140017421
 51
233.554911696619
  0
ARC
  5
36C
  8
0
  6
CONTINUOUS
 62
     7
 10
169.87686073646981
 20
0.0
 30
0.0
 40
19.74999999991585
 50
65.093648859458298
 51
84.906351140015815
  0
ARC
  5
36D
  8
0
  6
CONTINUOUS
 62
     7
 10
177.8108033849951
 20
17.087256353320878
 30
0.0
 40
0.9106322919964796
 50
276.44508831413719
 51
65.093648859458298
  0
ARC
  5
36E
  8
0
  6
CONTINUOUS
 62
     7
 10
178.1268607364002
 20
14.289419161127681
 30
0.0
 40
1.9049999999402321
 50
96.445088314135688
 51
23.5549116817147
  0
ARC
  5
36F
  8
0
  6
CONTINUOUS
 62
     7
 10
180.70788749627641
 20
15.41462406166781
 30
0.0
 40
0.9106322919964927
 50
54.906351136392352
 51
203.55491168171631
  0
ARC
  5
370
  8
0
  6
CONTINUOUS
 62
     7
 10
169.87686073646981
 20
0.0
 30
0.0
 40
19.749999999915872
 50
125.0936488636076
 51
54.906351136392352
  0
CIRCLE
  5
371
  8
0
  6
CONTINUOUS
 62
     7
 10
155.5874415734298
 20
8.2499999998399876
 30
0.0
 40
1.75
  0
CIRCLE
  5
372
  8
0
  6
CONTINUOUS
 62
     7
 10
169.87686073646981
 20
0.0
 30
0.0
 40
3.30200000000002
  0
CIRCLE
  5
397
  8
0
  6
CONTINUOUS
 62
     7
 10
109.05055286467049
 20
8.2499999997305054
 30
0.0
 40
1.7499965000000071
  0
CIRCLE
  5
398
  8
0
  6
CONTINUOUS
 62
     7
 10
94.761133701820185
 20
0.0
 30
0.0
 40
7.7499999999999689
  0
ARC
  5
399
  8
0
  6
CONTINUOUS
 62
     7
 10
90.870402516860565
 20
18.408482071479138
 30
0.0
 40
0.9348464975331815
 50
101.9341347101405
 51
269.08500856544788
  0
ARC
  5
39A
  8
0
  6
CONTINUOUS
 62
     7
 10
94.761133701820185
 20
0.0
 30
0.0
 40
19.750000000217831
 50
78.065865289856092
 51
101.9341347101405
  0
ARC
  5
39B
  8
0
  6
CONTINUOUS
 62
     7
 10
98.651864886779833
 20
18.408482071479138
 30
0.0
 40
0.9348464975331815
 50
270.91499143454888
 51
78.065865289856092
  0
ARC
  5
39C
  8
0
  6
CONTINUOUS
 62
     7
 10
98.700256291157302
 20
15.378521978425781
 30
0.0
 40
2.0954999997363379
 50
90.914991434552064
 51
247.8164490116792
  0
LINE
  5
39D
  8
0
  6
CONTINUOUS
 62
     7
 10
101.9074253656071
 20
11.80776424823704
 30
0.0
 11
97.909047955014174
 21
13.43813294070355
 31
0.0
  0
ARC
  5
39E
  8
0
  6
CONTINUOUS
 62
     7
 10
102.6986337017502
 20
13.748153285959321
 30
0.0
 40
2.095499999736365
 50
247.8164490116792
 51
44.717906559471693
  0
ARC
  5
39F
  8
0
  6
CONTINUOUS
 62
     7
 10
104.8519361288776
 20
15.880356032144819
 30
0.0
 40
0.9348464975331881
 50
57.567032723083877
 51
224.71790655947069
  0
ARC
  5
3A0
  8
0
  6
CONTINUOUS
 62
     7
 10
94.761133701820185
 20
0.0
 30
0.0
 40
19.750000000217849
 50
29.999999998482721
 51
57.56703272308097
  0
ARC
  5
3A1
  8
0
  6
CONTINUOUS
 62
     7
 10
109.05055286467049
 20
8.2499999997305054
 30
0.0
 40
3.2500000000000582
 50
331.13539689598332
 51
29.999999998482721
  0
LINE
  5
3A2
  8
0
  6
CONTINUOUS
 62
     7
 10
98.261133701315075
 20
-18.055952583654001
 30
0.0
 11
111.8967823809519
 21
6.6810903335455389
 31
0.0
  0
ARC
  5
3A3
  8
0
  6
CONTINUOUS
 62
     7
 10
95.414904185033706
 20
-16.487042917469068
 30
0.0
 40
3.2500000000000391
 50
272.27079379348061
 51
331.13539689598332
  0
ARC
  5
3A4
  8
0
  6
CONTINUOUS
 62
     7
 10
94.761133701820185
 20
0.0
 30
0.0
 40
19.75000000021786
 50
267.72920620651962
 51
272.27079379348061
  0
ARC
  5
3A5
  8
0
  6
CONTINUOUS
 62
     7
 10
94.107363218606707
 20
-16.487042917469068
 30
0.0
 40
3.2500000000000431
 50
208.8646031040179
 51
267.72920620651962
  0
LINE
  5
3A6
  8
0
  6
CONTINUOUS
 62
     7
 10
77.62548502268838
 20
6.6810903335455389
 30
0.0
 11
91.261133702325225
 21
-18.055952583654001
 31
0.0
  0
ARC
  5
3A7
  8
0
  6
CONTINUOUS
 62
     7
 10
80.471714538969806
 20
8.2499999997305054
 30
0.0
 40
3.250000000000044
 50
150.00000000151721
 51
208.86460310401841
  0
ARC
  5
3A8
  8
0
  6
CONTINUOUS
 62
     7
 10
94.761133701820185
 20
0.0
 30
0.0
 40
19.75000000021786
 50
122.432967276919
 51
150.00000000151721
  0
ARC
  5
3A9
  8
0
  6
CONTINUOUS
 62
     7
 10
84.670331274762731
 20
15.880356032144819
 30
0.0
 40
0.9348464975331804
 50
315.28209344053289
 51
122.4329672769161
  0
ARC
  5
3AA
  8
0
  6
CONTINUOUS
 62
     7
 10
86.823633701890074
 20
13.748153285959321
 30
0.0
 40
2.095499999736365
 50
135.28209344052831
 51
292.1835509883208
  0
LINE
  5
3AB
  8
0
  6
CONTINUOUS
 62
     7
 10
91.613219448626197
 20
13.43813294070355
 30
0.0
 11
87.614842038033203
 21
11.80776424823704
 31
0.0
  0
ARC
  5
3AC
  8
0
  6
CONTINUOUS
 62
     7
 10
90.822011112483068
 20
15.378521978425781
 30
0.0
 40
2.0954999997363331
 50
292.1835509883208
 51
89.085008565447879
  0
CIRCLE
  5
3AD
  8
0
  6
CONTINUOUS
 62
     7
 10
94.761133701820185
 20
-16.49999999968
 30
0.0
 40
1.7499964999999791
  0
CIRCLE
  5
3AE
  8
0
  6
CONTINUOUS
 62
     7
 10
80.471714538969806
 20
8.2499999997305054
 30
0.0
 40
1.7499965000000071
  0
CIRCLE
  5
407
  8
0
  6
CONTINUOUS
 62
     7
 10
0.0
 20
0.0
 30
0.0
 40
1.7779987006089459
  0
CIRCLE
  5
409
  8
0
  6
CONTINUOUS
 62
     7
 10
14.28941916244324
 20
8.2500000000000284
 30
0.0
 40
1.777998700608975
  0
CIRCLE
  5
40B
  8
0
  6
CONTINUOUS
 62
     7
 10
0.0
 20
-16.499999999999972
 30
0.0
 40
1.777998700608975
  0
CIRCLE
  5
40D
  8
0
  6
CONTINUOUS
 62
     7
 10
-14.28941916244322
 20
8.2500000000000284
 30
0.0
 40
1.777998700608975
  0
LINE
  5
40F
  8
0
  6
CONTINUOUS
 62
     7
 10
22.99999999999989
 20
2.5
 30
0.0
 11
28.99999999999989
 21
2.5
 31
0.0
  0
ARC
  5
410
  8
0
  6
CONTINUOUS
 62
     7
 10
-23.00000000000011
 20
0.0000000000000568
 30
0.0
 40
2.5
 50
270.0000000000008
 51
90.0
  0
ARC
  5
411
  8
0
  6
CONTINUOUS
 62
     7
 10
0.0152920258679359
 20
-0.1227330764885721
 30
0.0
 40
21.499999999999989
 50
226.2869448849026
 51
313.71305511509797
  0
ARC
  5
412
  8
0
  6
CONTINUOUS
 62
     7
 10
22.99999999999989
 20
0.0
 30
0.0
 40
2.5
 50
90.0
 51
270.0000000000008
  0
LINE
  5
413
  8
0
  6
CONTINUOUS
 62
     7
 10
28.99999999999989
 20
-2.5
 30
0.0
 11
22.99999999999989
 21
-2.5
 31
0.0
  0
ARC
  5
414
  8
0
  6
CONTINUOUS
 62
     7
 10
28.99999999999989
 20
0.0
 30
0.0
 40
2.5
 50
270.0000000000008
 51
90.0
  0
LINE
  5
415
  8
0
  6
CONTINUOUS
 62
     7
 10
-29.00000000000011
 20
2.5000000000000551
 30
0.0
 11
-23.00000000000011
 21
2.5000000000000551
 31
0.0
  0
ARC
  5
416
  8
0
  6
CONTINUOUS
 62
     7
 10
-29.00000000000011
 20
0.0000000000000568
 30
0.0
 40
2.5
 50
90.0
 51
270.0000000000008
  0
LINE
  5
417
  8
0
  6
CONTINUOUS
 62
     7
 10
-29.00000000000011
 20
-2.499999999999913
 30
0.0
 11
-23.00000000000011
 21
-2.4999999999999432
 31
0.0
  0
ARC
  5
418
  8
0
  6
CONTINUOUS
 62
     7
 10
-18.98850390156414
 20
-19.999999999999829
 30
0.0
 40
5.9999999999999876
 50
46.28694488490197
 51
90.0
  0
LINE
  5
419
  8
0
  6
CONTINUOUS
 62
     7
 10
-29.564509757657898
 20
-13.99999999999986
 30
0.0
 11
-18.98850390156414
 21
-13.99999999999986
 31
0.0
  0
ARC
  5
41A
  8
0
  6
CONTINUOUS
 62
     7
 10
-29.564509757657898
 20
-7.999999999999857
 30
0.0
 40
6.0
 50
180.0
 51
270.0000000000008
  0
LINE
  5
41B
  8
0
  6
CONTINUOUS
 62
     7
 10
-35.564509757657902
 20
8.0000000000001688
 30
0.0
 11
-35.564509757657902
 21
-7.999999999999857
 31
0.0
  0
ARC
  5
41C
  8
0
  6
CONTINUOUS
 62
     7
 10
-29.564509757657898
 20
8.0000000000001688
 30
0.0
 40
5.999999999999992
 50
90.0
 51
180.0
  0
LINE
  5
41D
  8
0
  6
CONTINUOUS
 62
     7
 10
-29.564509757657898
 20
14.00000000000014
 30
0.0
 11
-14.63295645712105
 21
14.00000000000014
 31
0.0
  0
ARC
  5
41E
  8
0
  6
CONTINUOUS
 62
     7
 10
-14.63295645712105
 20
8.0000000000001688
 30
0.0
 40
5.9999999999999778
 50
60.00003205826232
 51
90.0
  0
LINE
  5
41F
  8
0
  6
CONTINUOUS
 62
     7
 10
-11.63295936448433
 20
13.19615410127267
 30
0.0
 11
-8.8749970926368462
 21
11.60384589872762
 31
0.0
  0
ARC
  5
420
  8
0
  6
CONTINUOUS
 62
     7
 10
-5.8750000000001119
 20
16.80000000000015
 30
0.0
 40
6.0000000000000098
 50
240.0000320582634
 51
270.0000000000008
  0
LINE
  5
421
  8
0
  6
CONTINUOUS
 62
     7
 10
-5.8750000000001119
 20
10.80000000000015
 30
0.0
 11
5.8749999999998721
 21
10.80000000000015
 31
0.0
  0
ARC
  5
422
  8
0
  6
CONTINUOUS
 62
     7
 10
5.8749999999998721
 20
16.80000000000015
 30
0.0
 40
6.0000000000000071
 50
270.0000000000008
 51
299.9999679417383
  0
LINE
  5
423
  8
0
  6
CONTINUOUS
 62
     7
 10
8.8749970926366473
 20
11.60384589872765
 30
0.0
 11
11.632959364484019
 21
13.19615410127267
 31
0.0
  0
ARC
  5
424
  8
0
  6
CONTINUOUS
 62
     7
 10
14.63295645712078
 20
8.0000000000001688
 30
0.0
 40
6.0
 50
90.0
 51
119.99996794173769
  0
LINE
  5
425
  8
0
  6
CONTINUOUS
 62
     7
 10
14.63295645712078
 20
14.00000000000014
 30
0.0
 11
29.435490242342109
 21
14.000000000000171
 31
0.0
  0
ARC
  5
426
  8
0
  6
CONTINUOUS
 62
     7
 10
29.435490242342109
 20
8.0000000000001688
 30
0.0
 40
6.0
 50
0.0
 51
90.0
  0
LINE
  5
427
  8
0
  6
CONTINUOUS
 62
     7
 10
35.435490242342098
 20
8.0000000000001688
 30
0.0
 11
35.435490242342098
 21
-7.999999999999857
 31
0.0
  0
ARC
  5
428
  8
0
  6
CONTINUOUS
 62
     7
 10
29.435490242342109
 20
-7.999999999999857
 30
0.0
 40
6.0
 50
270.0000000000008
 51
0.0
  0
LINE
  5
429
  8
0
  6
CONTINUOUS
 62
     7
 10
29.435490242342109
 20
-13.99999999999986
 30
0.0
 11
19.019087953299991
 21
-13.999999999999829
 31
0.0
  0
ARC
  5
42A
  8
0
  6
CONTINUOUS
 62
     7
 10
19.019087953299991
 20
-19.999999999999829
 30
0.0
 40
6.0
 50
90.0
 51
133.713055115098
  0
INSERT
  5
2A54
  8
0
  2
*U17
 10
0.0
 20
7.2061702944967001
 30
0.0
  0
INSERT
  5
2B1E
  8
0
  2
*U18
 10
0.0
 20
7.2061702944967001
 30
0.0
  0
INSERT
  5
2B1F
  8
0
  2
*U19
 10
0.0
 20
7.2061702944967001
 30
0.0
  0
INSERT
  5
2C40
  8
0
  2
*U20
 10
0.0
 20
0.0
 30
0.0
  0
INSERT
  5
2C41
  8
0
  2
*U21
 10
0.0
 20
0.0
 30
0.0
  0
INSERT
  5
2C42
  8
0
  2
*U22
 10
0.0
 20
0.0
 30
0.0
  0
ENDSEC
  0
EOF
